<mxfile host="app.diagrams.net" modified="2024-04-22T16:15:54.673Z" agent="Mozilla/5.0 (Windows NT 10.0; Win64; x64) AppleWebKit/537.36 (KHTML, like Gecko) Chrome/124.0.0.0 Safari/537.36" etag="jD_hRpXfoXUmVY2Mtdxr" version="24.2.7" type="github">
  <diagram id="C5RBs43oDa-KdzZeNtuy" name="Page-1">
    <mxGraphModel dx="1000" dy="497" grid="1" gridSize="10" guides="1" tooltips="1" connect="1" arrows="1" fold="1" page="1" pageScale="1" pageWidth="827" pageHeight="1169" math="0" shadow="0">
      <root>
        <mxCell id="WIyWlLk6GJQsqaUBKTNV-0" />
        <mxCell id="WIyWlLk6GJQsqaUBKTNV-1" parent="WIyWlLk6GJQsqaUBKTNV-0" />
        <mxCell id="7Jw0wPZAzbhj8gwIt3wb-27" value="&lt;div&gt;&lt;br&gt;&lt;/div&gt;&lt;div&gt;&lt;br&gt;&lt;/div&gt;" style="edgeStyle=orthogonalEdgeStyle;rounded=0;orthogonalLoop=1;jettySize=auto;html=1;entryX=0.5;entryY=0;entryDx=0;entryDy=0;" edge="1" parent="WIyWlLk6GJQsqaUBKTNV-1" source="7Jw0wPZAzbhj8gwIt3wb-0" target="7Jw0wPZAzbhj8gwIt3wb-6">
          <mxGeometry relative="1" as="geometry" />
        </mxCell>
        <mxCell id="7Jw0wPZAzbhj8gwIt3wb-0" value="Enter a number, num" style="shape=parallelogram;perimeter=parallelogramPerimeter;whiteSpace=wrap;html=1;fixedSize=1;" vertex="1" parent="WIyWlLk6GJQsqaUBKTNV-1">
          <mxGeometry x="324" y="130" width="180" height="50" as="geometry" />
        </mxCell>
        <mxCell id="7Jw0wPZAzbhj8gwIt3wb-3" style="edgeStyle=orthogonalEdgeStyle;rounded=0;orthogonalLoop=1;jettySize=auto;html=1;entryX=0.5;entryY=0;entryDx=0;entryDy=0;" edge="1" parent="WIyWlLk6GJQsqaUBKTNV-1" source="7Jw0wPZAzbhj8gwIt3wb-2" target="7Jw0wPZAzbhj8gwIt3wb-0">
          <mxGeometry relative="1" as="geometry" />
        </mxCell>
        <mxCell id="7Jw0wPZAzbhj8gwIt3wb-2" value="Start" style="ellipse;whiteSpace=wrap;html=1;" vertex="1" parent="WIyWlLk6GJQsqaUBKTNV-1">
          <mxGeometry x="354" y="10" width="120" height="80" as="geometry" />
        </mxCell>
        <mxCell id="7Jw0wPZAzbhj8gwIt3wb-25" style="edgeStyle=orthogonalEdgeStyle;rounded=0;orthogonalLoop=1;jettySize=auto;html=1;entryX=0.5;entryY=0;entryDx=0;entryDy=0;" edge="1" parent="WIyWlLk6GJQsqaUBKTNV-1" source="7Jw0wPZAzbhj8gwIt3wb-4" target="7Jw0wPZAzbhj8gwIt3wb-7">
          <mxGeometry relative="1" as="geometry" />
        </mxCell>
        <mxCell id="7Jw0wPZAzbhj8gwIt3wb-4" value="For i = 1 to num" style="rounded=0;whiteSpace=wrap;html=1;" vertex="1" parent="WIyWlLk6GJQsqaUBKTNV-1">
          <mxGeometry x="332" y="330" width="164" height="50" as="geometry" />
        </mxCell>
        <mxCell id="7Jw0wPZAzbhj8gwIt3wb-26" style="edgeStyle=orthogonalEdgeStyle;rounded=0;orthogonalLoop=1;jettySize=auto;html=1;" edge="1" parent="WIyWlLk6GJQsqaUBKTNV-1" source="7Jw0wPZAzbhj8gwIt3wb-6" target="7Jw0wPZAzbhj8gwIt3wb-4">
          <mxGeometry relative="1" as="geometry" />
        </mxCell>
        <mxCell id="7Jw0wPZAzbhj8gwIt3wb-6" value="j = 1&lt;div&gt;&lt;br&gt;&lt;/div&gt;" style="rounded=0;whiteSpace=wrap;html=1;" vertex="1" parent="WIyWlLk6GJQsqaUBKTNV-1">
          <mxGeometry x="332" y="230" width="164" height="50" as="geometry" />
        </mxCell>
        <mxCell id="7Jw0wPZAzbhj8gwIt3wb-23" style="edgeStyle=orthogonalEdgeStyle;rounded=0;orthogonalLoop=1;jettySize=auto;html=1;entryX=0.5;entryY=0;entryDx=0;entryDy=0;" edge="1" parent="WIyWlLk6GJQsqaUBKTNV-1" source="7Jw0wPZAzbhj8gwIt3wb-7" target="7Jw0wPZAzbhj8gwIt3wb-8">
          <mxGeometry relative="1" as="geometry" />
        </mxCell>
        <mxCell id="7Jw0wPZAzbhj8gwIt3wb-24" value="i = i + 1" style="edgeLabel;html=1;align=center;verticalAlign=middle;resizable=0;points=[];" vertex="1" connectable="0" parent="7Jw0wPZAzbhj8gwIt3wb-23">
          <mxGeometry x="-0.221" relative="1" as="geometry">
            <mxPoint as="offset" />
          </mxGeometry>
        </mxCell>
        <mxCell id="7Jw0wPZAzbhj8gwIt3wb-7" value="j = j*i" style="rounded=0;whiteSpace=wrap;html=1;" vertex="1" parent="WIyWlLk6GJQsqaUBKTNV-1">
          <mxGeometry x="332" y="440" width="164" height="50" as="geometry" />
        </mxCell>
        <mxCell id="7Jw0wPZAzbhj8gwIt3wb-11" style="edgeStyle=orthogonalEdgeStyle;rounded=0;orthogonalLoop=1;jettySize=auto;html=1;entryX=1;entryY=0.5;entryDx=0;entryDy=0;" edge="1" parent="WIyWlLk6GJQsqaUBKTNV-1" source="7Jw0wPZAzbhj8gwIt3wb-8" target="7Jw0wPZAzbhj8gwIt3wb-7">
          <mxGeometry relative="1" as="geometry">
            <Array as="points">
              <mxPoint x="580" y="595" />
              <mxPoint x="580" y="465" />
            </Array>
          </mxGeometry>
        </mxCell>
        <mxCell id="7Jw0wPZAzbhj8gwIt3wb-12" value="False" style="edgeLabel;html=1;align=center;verticalAlign=middle;resizable=0;points=[];" vertex="1" connectable="0" parent="7Jw0wPZAzbhj8gwIt3wb-11">
          <mxGeometry x="-0.0099" y="-2" relative="1" as="geometry">
            <mxPoint as="offset" />
          </mxGeometry>
        </mxCell>
        <mxCell id="7Jw0wPZAzbhj8gwIt3wb-19" style="edgeStyle=orthogonalEdgeStyle;rounded=0;orthogonalLoop=1;jettySize=auto;html=1;entryX=0.5;entryY=0;entryDx=0;entryDy=0;" edge="1" parent="WIyWlLk6GJQsqaUBKTNV-1" source="7Jw0wPZAzbhj8gwIt3wb-8" target="7Jw0wPZAzbhj8gwIt3wb-17">
          <mxGeometry relative="1" as="geometry" />
        </mxCell>
        <mxCell id="7Jw0wPZAzbhj8gwIt3wb-21" value="True" style="edgeLabel;html=1;align=center;verticalAlign=middle;resizable=0;points=[];" vertex="1" connectable="0" parent="7Jw0wPZAzbhj8gwIt3wb-19">
          <mxGeometry x="-0.3417" y="-1" relative="1" as="geometry">
            <mxPoint as="offset" />
          </mxGeometry>
        </mxCell>
        <mxCell id="7Jw0wPZAzbhj8gwIt3wb-8" value="If i &amp;gt; num" style="rhombus;whiteSpace=wrap;html=1;" vertex="1" parent="WIyWlLk6GJQsqaUBKTNV-1">
          <mxGeometry x="356" y="540" width="116" height="110" as="geometry" />
        </mxCell>
        <mxCell id="7Jw0wPZAzbhj8gwIt3wb-10" value="End" style="ellipse;whiteSpace=wrap;html=1;" vertex="1" parent="WIyWlLk6GJQsqaUBKTNV-1">
          <mxGeometry x="354" y="830" width="120" height="80" as="geometry" />
        </mxCell>
        <mxCell id="7Jw0wPZAzbhj8gwIt3wb-20" style="edgeStyle=orthogonalEdgeStyle;rounded=0;orthogonalLoop=1;jettySize=auto;html=1;entryX=0.5;entryY=0;entryDx=0;entryDy=0;" edge="1" parent="WIyWlLk6GJQsqaUBKTNV-1" source="7Jw0wPZAzbhj8gwIt3wb-17" target="7Jw0wPZAzbhj8gwIt3wb-10">
          <mxGeometry relative="1" as="geometry" />
        </mxCell>
        <mxCell id="7Jw0wPZAzbhj8gwIt3wb-17" value="Print j" style="shape=parallelogram;perimeter=parallelogramPerimeter;whiteSpace=wrap;html=1;fixedSize=1;" vertex="1" parent="WIyWlLk6GJQsqaUBKTNV-1">
          <mxGeometry x="324" y="730" width="180" height="50" as="geometry" />
        </mxCell>
      </root>
    </mxGraphModel>
  </diagram>
</mxfile>
